<svg xmlns="http://www.w3.org/2000/svg" fill="none" viewBox="0 0 14 15">
    <path fill="currentColor" fill-rule="evenodd" d="M7.004.5a.93.93 0 0 1 .93.931v.471A3.265 3.265 0 0 1 11.2 5.167a.931.931 0 0 1-1.863 0 1.403 1.403 0 0 0-1.402-1.402H5.833a1.403 1.403 0 1 0 0 2.805H8.4a3.265 3.265 0 0 1 0 6.53h-.465v.469a.931.931 0 1 1-1.863 0V13.1H5.6a3.265 3.265 0 0 1-3.266-3.265.931.931 0 0 1 1.863 0A1.403 1.403 0 0 0 5.6 11.238h1.365a.995.995 0 0 1 .077 0H8.4a1.403 1.403 0 1 0 0-2.806H5.833a3.265 3.265 0 1 1 0-6.53h.24v-.47A.93.93 0 0 1 7.003.5Z" clip-rule="evenodd"/>
</svg>
