<svg xmlns="http://www.w3.org/2000/svg" width="14" height="15" fill="none" viewBox="0 0 14 15">
    <path fill="currentColor" fill-rule="evenodd" d="M5.256.5a.5.5 0 0 0-.5.5v2.615L2.493 2.31a.5.5 0 0 0-.683.183L.067 5.51a.5.5 0 0 0 .183.683L2.514 7.5.25 8.807a.5.5 0 0 0-.183.683l1.743 3.018a.5.5 0 0 0 .682.183l2.264-1.307V14a.5.5 0 0 0 .5.5H8.74a.5.5 0 0 0 .5-.5v-2.616l2.266 1.309a.5.5 0 0 0 .683-.183l1.742-3.018a.5.5 0 0 0-.183-.683l-2.266-1.31 2.266-1.308a.5.5 0 0 0 .183-.683L12.19 2.49a.5.5 0 0 0-.683-.183L9.24 3.615V1a.5.5 0 0 0-.5-.5H5.256Zm1.743 8.873a1.873 1.873 0 1 0 0-3.746 1.873 1.873 0 0 0 0 3.746Z" clip-rule="evenodd"/>
</svg>
