<svg xmlns="http://www.w3.org/2000/svg" viewBox="0 0 14 4" fill="none">
    <path d="M6.86146 3.10783C7.51925 3.10783 8.0525 2.55552 8.0525 1.87423C8.0525 1.19293 7.51925 0.640625 6.86146 0.640625C6.20366 0.640625 5.67041 1.19293 5.67041 1.87423C5.67041 2.55552 6.20366 3.10783 6.86146 3.10783Z" fill="currentColor"/>
    <path d="M12.4891 3.10783C13.1469 3.10783 13.6802 2.55552 13.6802 1.87423C13.6802 1.19293 13.1469 0.640625 12.4891 0.640625C11.8313 0.640625 11.2981 1.19293 11.2981 1.87423C11.2981 2.55552 11.8313 3.10783 12.4891 3.10783Z" fill="currentColor"/>
    <path d="M1.23377 3.10783C1.89157 3.10783 2.42482 2.55552 2.42482 1.87423C2.42482 1.19293 1.89157 0.640625 1.23377 0.640625C0.575974 0.640625 0.0427246 1.19293 0.0427246 1.87423C0.0427246 2.55552 0.575974 3.10783 1.23377 3.10783Z" fill="currentColor"/>
</svg>